<?xml version="1.0" encoding="UTF-8"?>
<!DOCTYPE svg PUBLIC "-//W3C//DTD SVG 1.1//EN" "http://www.w3.org/Graphics/SVG/1.1/DTD/svg11.dtd">
<svg xmlns="http://www.w3.org/2000/svg" version="1.1" width="512px" height="512px" style="shape-rendering:geometricPrecision; text-rendering:geometricPrecision; image-rendering:optimizeQuality; fill-rule:evenodd; clip-rule:evenodd" xmlns:xlink="http://www.w3.org/1999/xlink">
<g><path style="opacity:0.998" fill="#ff6f68" d="M 173.5,105.5 C 201.686,104.376 227.02,112.209 249.5,129C 258.4,136.566 266.567,144.733 274,153.5C 318.106,143.533 354.106,156.2 382,191.5C 390.799,204.74 396.966,219.073 400.5,234.5C 441.177,230.253 471.344,245.92 491,281.5C 507.15,322.397 498.983,357.564 466.5,387C 452.609,397.521 436.942,403.521 419.5,405C 310.167,405.667 200.833,405.667 91.5,405C 51.1727,399.67 25.3394,377.503 14,338.5C 6.64066,290.415 25.1407,256.748 69.5,237.5C 63.8946,181.531 85.8946,140.698 135.5,115C 147.831,109.917 160.497,106.751 173.5,105.5 Z"/></g>
</svg>
